<svg width="294" height="177" viewBox="0 0 294 177" fill="none" xmlns="http://www.w3.org/2000/svg">
<path d="M82.8068 64.1444C82.7092 67.0774 83.0995 70.0104 83.88 72.8456C84.758 75.2897 85.8312 77.6361 87.002 79.8847C87.3922 80.569 87.6849 81.3512 87.6849 82.1333C87.5873 83.3065 86.9044 84.4797 85.8312 85.0663L79.6848 89.1724C78.9043 89.6612 78.0263 90.0523 77.1482 90.0523C76.075 89.9546 75.0018 89.4657 74.2213 88.6836C72.953 87.3149 71.6847 85.7506 70.7091 84.0886C69.7335 82.4266 68.7578 80.569 67.6847 78.3204C60.0748 87.3149 50.5137 91.8121 39.0013 91.8121C30.8061 91.8121 24.2694 89.4657 19.4889 84.773C14.7083 80.0802 12.2693 73.8232 12.2693 66.002C12.2693 57.6919 15.1962 50.9461 21.1475 45.8623C27.0988 40.7784 35.0013 38.2365 45.0502 38.2365C48.4649 38.2365 51.9771 38.5298 55.3918 39.0187C59.0016 39.5075 62.709 40.2896 66.6115 41.1695V34.0326C66.6115 26.6024 65.0505 21.4209 62.026 18.3901C59.0016 15.3594 53.6357 13.8929 46.1234 13.8929C42.6111 13.8929 39.0013 14.284 35.5867 15.1639C31.9769 16.0437 28.4646 17.1192 25.0499 18.4879C23.9768 18.9767 22.806 19.3678 21.6353 19.7588C21.1475 19.9544 20.5621 20.0521 20.0743 20.0521C18.7084 20.0521 18.0255 19.0745 18.0255 17.0214V12.2309C17.9279 11.0577 18.2206 9.88451 18.7084 8.80909C19.4889 7.9292 20.367 7.24484 21.4401 6.75601C25.3426 4.8007 29.4402 3.33421 33.733 2.35656C38.7087 1.0856 43.8795 0.499011 48.9527 0.499011C60.5626 0.499011 69.0505 3.13868 74.514 8.41803C79.9775 13.6974 82.6117 21.7141 82.6117 32.4684V64.1444H82.8068ZM43.1965 79.0048C46.6112 79.0048 50.0259 78.4182 53.2454 77.245C56.8552 75.9741 59.9772 73.8232 62.5139 70.988C64.0748 69.2282 65.2456 67.0774 65.831 64.731C66.5139 61.9936 66.8066 59.0606 66.8066 56.2254V52.1193C63.8797 51.4349 60.8553 50.8483 57.8309 50.4572C54.8064 50.0662 51.6844 49.8706 48.66 49.8706C42.1233 49.8706 37.3428 51.1416 34.1232 53.7813C30.9037 56.4209 29.3427 60.136 29.3427 65.0243C29.3427 69.6193 30.5134 73.0411 32.9525 75.3875C35.3915 77.7338 38.7087 79.0048 43.1965 79.0048ZM121.539 89.5635C120.271 89.6613 118.905 89.368 117.832 88.5858C116.856 87.5104 116.076 86.2395 115.783 84.773L92.8557 9.20015C92.3679 7.9292 92.0752 6.65824 91.9777 5.28953C91.8801 4.11634 92.6606 3.04092 93.8313 2.84539H103.978C105.831 2.84539 107.1 3.13868 107.783 3.82304C108.466 4.5074 109.149 5.77835 109.734 7.6359L126.027 72.3567L141.247 7.6359C141.734 5.68059 142.32 4.40964 143.1 3.82304C144.271 3.13868 145.637 2.74762 147.003 2.84539H154.808C156.661 2.84539 157.93 3.13868 158.71 3.82304C159.686 4.89846 160.369 6.16942 160.564 7.6359L175.979 73.1389L192.857 7.6359C193.15 6.16942 193.833 4.89846 194.808 3.82304C195.979 3.13868 197.247 2.74762 198.613 2.84539H207.687C208.857 2.64985 209.93 3.52974 210.126 4.70293V5.28953C210.126 5.77835 210.028 6.36495 209.93 6.85378C209.735 7.73367 209.54 8.51579 209.248 9.29792L185.735 84.8707C185.15 86.826 184.467 88.097 183.686 88.6836C182.613 89.368 181.247 89.759 179.979 89.6612H171.588C169.735 89.6612 168.466 89.368 167.686 88.6836C166.71 87.6082 166.027 86.2395 165.832 84.773L150.71 21.7141L135.686 84.6752C135.49 86.1417 134.807 87.5104 133.832 88.5858C132.661 89.368 131.295 89.6613 129.929 89.5635H121.539ZM246.907 92.2032C241.833 92.2032 236.76 91.6166 231.882 90.4434C227.004 89.2702 223.199 87.9992 220.662 86.5327C219.394 85.9462 218.321 84.9685 217.638 83.7953C217.248 82.9154 217.052 82.0355 217.052 81.0579V76.0718C217.052 74.0188 217.833 73.0411 219.296 73.0411C219.882 73.0411 220.467 73.1389 221.053 73.3344C221.638 73.5299 222.516 73.921 223.492 74.312C226.906 75.8763 230.516 76.9517 234.223 77.7338C238.028 78.516 241.931 78.907 245.833 78.907C251.98 78.907 256.76 77.8316 260.077 75.6808C263.297 73.7254 265.248 70.2059 265.151 66.393C265.248 63.8511 264.273 61.407 262.516 59.5494C260.76 57.6919 257.443 56.0299 252.663 54.4656L238.516 50.0662C231.394 47.8176 226.126 44.4935 222.906 40.0941C219.784 35.9879 218.028 31.0996 218.028 25.9181C217.931 22.1052 218.809 18.3901 220.662 15.0661C222.418 11.9376 224.76 9.20015 227.687 7.04931C230.711 4.70293 234.126 3.04092 237.833 1.96549C241.833 0.792308 245.931 0.205714 250.126 0.30348C252.272 0.30348 254.516 0.401245 256.663 0.694542C258.907 0.987839 260.956 1.3789 263.004 1.76996C265.053 2.16103 266.809 2.74762 268.565 3.33421C270.029 3.82304 271.395 4.40964 272.663 5.094C273.834 5.68059 274.809 6.46271 275.59 7.53814C276.273 8.51579 276.565 9.59121 276.468 10.7644V15.3594C276.468 17.4125 275.687 18.4879 274.224 18.4879C272.956 18.2924 271.687 17.9013 270.517 17.3147C264.663 14.675 258.224 13.4041 251.785 13.5018C246.224 13.5018 241.833 14.3817 238.809 16.2393C235.784 18.0968 234.223 20.932 234.223 24.9404C234.126 27.5801 235.199 30.122 237.15 31.8818C239.102 33.7393 242.711 35.5969 247.882 37.2589L261.736 41.6583C268.76 43.9069 273.834 47.0354 276.858 51.0438C279.883 54.9545 281.444 59.8427 281.346 64.731C281.444 68.6416 280.566 72.5523 278.809 76.0718C277.053 79.3959 274.614 82.3288 271.687 84.6752C268.468 87.2171 264.76 89.0747 260.858 90.1501C256.37 91.5188 251.687 92.2032 246.907 92.2032Z" fill="#252F3E"/>
<path d="M265.346 139.717C233.248 163.474 186.613 176.086 146.515 176.086C90.3191 176.086 39.6843 155.262 1.43993 120.653C-1.5845 117.915 1.14724 114.2 4.75704 116.351C46.1234 140.401 97.1485 154.968 149.93 154.968C187.979 154.773 225.638 147.049 260.663 132.287C266.029 129.843 270.614 135.806 265.346 139.717Z" fill="#FF9900"/>
<path d="M278.713 124.466C274.615 119.186 251.59 121.924 241.151 123.195C238.029 123.586 237.541 120.848 240.371 118.795C258.712 105.89 288.859 109.605 292.371 113.907C295.884 118.209 291.396 148.516 274.225 162.985C271.591 165.234 269.054 164.061 270.225 161.128C274.127 151.449 282.81 129.647 278.713 124.466Z" fill="#FF9900"/>
</svg>
