<svg width="274" height="304" viewBox="0 0 274 304" fill="none" xmlns="http://www.w3.org/2000/svg">
<path d="M273.654 89.2448C273.654 84.15 272.545 79.6458 270.325 75.7851C268.138 71.9877 264.862 68.8021 260.456 66.281C224.156 45.5851 187.815 24.9525 151.516 4.23545C141.731 -1.34464 132.246 -1.14422 122.536 4.52026C108.089 12.9484 35.7362 53.9183 14.1829 66.2705C5.29488 71.3548 0.973561 79.129 0.973561 89.2343C0.962891 130.858 0.973561 172.472 0.962891 214.095C0.962891 219.074 2.01921 223.494 4.1532 227.302C6.34053 231.215 9.66955 234.485 14.1723 237.059C35.7362 249.401 108.089 290.381 122.536 298.81C132.256 304.474 141.742 304.685 151.526 299.094C187.815 278.377 224.156 257.745 260.466 237.049C264.969 234.475 268.287 231.205 270.485 227.292C272.609 223.484 273.676 219.074 273.676 214.085C273.665 214.085 273.665 130.869 273.654 89.2448Z" fill="#A179DC"/>
<path d="M137.733 151.269L4.15576 227.312C6.3431 231.226 9.67211 234.496 14.1748 237.069C35.7387 249.411 108.092 290.392 122.539 298.82C132.259 304.484 141.744 304.695 151.529 299.105C187.817 278.387 224.159 257.755 260.469 237.059C264.971 234.485 268.29 231.215 270.488 227.302L137.733 151.269Z" fill="#280068"/>
<path d="M273.647 89.2584C273.647 84.1636 272.538 79.6594 270.318 75.7987L137.734 151.272L270.478 227.295C272.602 223.487 273.669 219.077 273.669 214.088C273.658 214.099 273.658 130.882 273.647 89.2584Z" fill="#390091"/>
<path d="M216.385 122.842V137.05H230.758V122.842H237.949V137.05H252.322V144.16H237.949V158.369H252.322V165.478H237.949V179.687H230.758V165.478H216.385V179.687H209.194V165.478H194.821V158.369H209.194V144.16H194.821V137.05H209.194V122.842H216.385ZM230.768 144.16H216.396V158.369H230.768V144.16Z" fill="white"/>
<path d="M138.047 51.4717C175.542 51.4717 208.288 71.6086 225.818 101.534L225.648 101.25L181.527 126.365C172.831 111.819 156.901 101.998 138.624 101.798H138.047C110.167 101.798 87.568 124.14 87.568 151.692C87.568 160.7 90.0007 169.149 94.226 176.449C102.922 191.47 119.279 201.596 138.047 201.596C156.923 201.596 173.376 191.343 182.029 176.164L181.815 176.533L225.872 201.765C208.533 231.438 176.235 251.511 139.178 251.912L138.047 251.923C100.436 251.923 67.5939 231.67 50.1059 201.586C41.5699 186.902 36.6831 169.877 36.6831 151.713C36.6831 96.334 82.0623 51.4717 138.047 51.4717Z" fill="white"/>
</svg>
